<?xml version="1.0" encoding="iso-8859-1"?>
<!-- Generator: Adobe Illustrator 19.0.0, SVG Export Plug-In . SVG Version: 6.00 Build 0)  -->
<svg version="1.1" id="Capa_1" xmlns="http://www.w3.org/2000/svg" xmlns:xlink="http://www.w3.org/1999/xlink" x="0px" y="0px"
	 viewBox="0 0 512 512" style="enable-background:new 0 0 512 512;" xml:space="preserve">
<g>
	<g>
		<path d="M437.333,42.667H315.787c-22.597-0.03-44.214,9.226-59.787,25.6c-15.56-16.361-37.155-25.615-59.733-25.6h-121.6
			C68.776,42.667,64,47.442,64,53.333v192C64,251.224,68.776,256,74.667,256h121.6c20.447-0.005,39.539,10.226,50.859,27.253
			c1.979,2.966,5.309,4.747,8.875,4.747c3.566,0.001,6.896-1.781,8.875-4.747c11.331-17.043,30.446-27.276,50.912-27.253h121.547
			c5.891,0,10.667-4.776,10.667-10.667v-192C448,47.442,443.224,42.667,437.333,42.667z M426.667,234.667h-110.88
			c-22.597-0.03-44.214,9.226-59.787,25.6c-15.56-16.361-37.155-25.615-59.733-25.6H85.333l0-170.667h110.933
			c20.447-0.005,39.539,10.226,50.859,27.253c0.635,0.849,1.388,1.602,2.236,2.236c4.901,3.666,11.847,2.665,15.513-2.236
			C276.205,74.21,295.321,63.978,315.787,64h110.88V234.667z"/>
	</g>
</g>
<g>
	<g>
		<path d="M298.667,277.333c-5.891,0-10.667,4.776-10.667,10.667c0,11.782-9.551,21.333-21.333,21.333h-21.333
			C233.551,309.333,224,299.782,224,288c0-5.891-4.776-10.667-10.667-10.667H64v21.333h140.011
			c4.891,18.825,21.873,31.975,41.323,32h21.333c19.45-0.025,36.431-13.175,41.323-32H448v-21.333H298.667z"/>
	</g>
</g>
<g>
	<g>
		<rect x="245.333" y="85.333" width="21.333" height="149.333"/>
	</g>
</g>
<g>
	<g>
		<rect x="106.667" y="85.333" width="64" height="21.333"/>
	</g>
</g>
<g>
	<g>
		<rect x="192" y="85.333" width="21.333" height="21.333"/>
	</g>
</g>
<g>
	<g>
		<rect x="149.333" y="128" width="64" height="21.333"/>
	</g>
</g>
<g>
	<g>
		<rect x="106.667" y="128" width="21.333" height="21.333"/>
	</g>
</g>
<g>
	<g>
		<rect x="106.667" y="170.667" width="21.333" height="21.333"/>
	</g>
</g>
<g>
	<g>
		<rect x="149.333" y="170.667" width="21.333" height="21.333"/>
	</g>
</g>
<g>
	<g>
		<rect x="341.333" y="192" width="64" height="21.333"/>
	</g>
</g>
<g>
	<g>
		<rect x="298.667" y="192" width="21.333" height="21.333"/>
	</g>
</g>
<g>
	<g>
		<rect x="298.667" y="149.333" width="64" height="21.333"/>
	</g>
</g>
<g>
	<g>
		<rect x="384" y="149.333" width="21.333" height="21.333"/>
	</g>
</g>
<g>
	<g>
		<rect x="384" y="106.667" width="21.333" height="21.333"/>
	</g>
</g>
<g>
	<g>
		<rect x="341.333" y="106.667" width="21.333" height="21.333"/>
	</g>
</g>
<g>
	<g>
		<path d="M469.333,0H42.667C19.103,0,0,19.103,0,42.667v320c0,23.564,19.103,42.667,42.667,42.667h426.667
			c23.564,0,42.667-19.103,42.667-42.667v-320C512,19.103,492.898,0,469.333,0z M490.667,362.667
			c0,11.782-9.551,21.333-21.333,21.333H42.667c-11.782,0-21.333-9.551-21.333-21.333v-320c0-11.782,9.551-21.333,21.333-21.333
			h426.667c11.782,0,21.333,9.551,21.333,21.333V362.667z"/>
	</g>
</g>
<g>
	<g>
		<path d="M405.333,448H106.667c-17.673,0-32,14.327-32,32s14.327,32,32,32h298.667c17.673,0,32-14.327,32-32
			S423.006,448,405.333,448z M405.333,490.667H106.667C100.776,490.667,96,485.891,96,480c0-5.891,4.776-10.667,10.667-10.667
			h298.667c5.891,0,10.667,4.776,10.667,10.667C416,485.891,411.224,490.667,405.333,490.667z"/>
	</g>
</g>
<g>
	<g>
		<path d="M320,384H192c-5.891,0-10.667,4.776-10.667,10.667v64c0,5.891,4.776,10.667,10.667,10.667h128
			c5.891,0,10.667-4.776,10.667-10.667v-64C330.667,388.776,325.891,384,320,384z M309.333,448H202.667v-42.667h106.667V448z"/>
	</g>
</g>
<g>
	<g>
		<path d="M330.667,330.667c-4.043-0.002-7.74,2.282-9.547,5.899L313.408,352H198.592l-7.712-15.435
			c-1.807-3.617-5.504-5.901-9.547-5.899H0V352h174.741l7.712,15.435c1.807,3.617,5.504,5.901,9.547,5.899h128
			c4.062,0.022,7.784-2.265,9.6-5.899L337.259,352H512v-21.333H330.667z"/>
	</g>
</g>
<g>
</g>
<g>
</g>
<g>
</g>
<g>
</g>
<g>
</g>
<g>
</g>
<g>
</g>
<g>
</g>
<g>
</g>
<g>
</g>
<g>
</g>
<g>
</g>
<g>
</g>
<g>
</g>
<g>
</g>
</svg>
