<svg height="480pt" viewBox="0 0 480.056 480" width="480pt" xmlns="http://www.w3.org/2000/svg"><path d="m480 104.027344c-.027344-22.078125-17.917969-39.972656-40-40h-8v16h8c13.253906 0 24 10.746094 24 24l.039062 216h-448.039062v-216c0-13.253906 10.746094-24 24-24h8v-16h-8c-22.082031.027344-39.9726562 17.921875-40 40v248c.0273438 22.082031 17.917969 39.972656 40 40h148.617188l-26.21875 72h-26.398438v16h208v-16h-26.398438l-26.167968-72h148.621094c22.082031-.027344 39.976562-17.917969 40-40v-24zm-179.398438 360h-121.152343l26.191406-72h68.800781zm139.453126-88h-400.054688c-13.253906 0-24-10.746094-24-24v-16h448.046875v16c0 13.253906-10.738281 23.996094-23.992187 24zm0 0"/><path d="m416.054688 304.027344v-264c-.023438-22.078125-17.917969-39.9726565-40-40.0000002h-272c-22.078126.0273437-39.972657 17.9218752-40 40.0000002v264h16v-264c0-13.253906 10.746093-24 24-24h272c13.257812 0 24 10.746094 24 24v264zm0 0"/><path d="m104 32.027344h16v16h-16zm0 0"/><path d="m136 32.027344h16v16h-16zm0 0"/><path d="m168 32.027344h16v16h-16zm0 0"/><path d="m376 216.027344v-64c0-4.417969-3.582031-8-8-8h-256c-4.417969 0-8 3.582031-8 8v64c0 4.417968 3.582031 8 8 8h136v-16h-128v-48h240v48h-8v16h16c4.417969 0 8-3.582032 8-8zm0 0"/><path d="m136 176.027344h16v16h-16zm0 0"/><path d="m168 176.027344h16v16h-16zm0 0"/><path d="m200 176.027344h16v16h-16zm0 0"/><path d="m232 176.027344h16v16h-16zm0 0"/><path d="m104 64.027344h272v16h-272zm0 0"/><path d="m343.566406 197.429688c-.992187-2.890626-3.542968-4.960938-6.574218-5.335938l-64-8c-2.449219-.308594-4.902344.535156-6.644532 2.28125-1.746094 1.742188-2.589844 4.195312-2.285156 6.644531l8 64c.378906 3.035157 2.453125 5.585938 5.34375 6.578125 2.894531.992188 6.097656.25 8.257812-1.914062l10.335938-10.34375 26.34375 26.34375c3.125 3.125 8.1875 3.125 11.3125 0l24-24c3.121094-3.125 3.121094-8.1875 0-11.3125l-26.34375-26.34375 10.34375-10.34375c2.160156-2.160156 2.902344-5.363282 1.910156-8.253906zm-2.878906 50.597656-12.6875 12.6875-26.34375-26.34375c-3.125-3.121094-8.1875-3.121094-11.3125 0l-4.433594 4.433594-4.695312-37.5625 37.601562 4.699218-4.433594 4.429688c-3.121093 3.125-3.121093 8.1875 0 11.3125zm0 0"/></svg>