<?xml version="1.0" standalone="no"?>
<!DOCTYPE svg PUBLIC "-//W3C//DTD SVG 20010904//EN"
 "http://www.w3.org/TR/2001/REC-SVG-20010904/DTD/svg10.dtd">
<svg version="1.0" xmlns="http://www.w3.org/2000/svg"
 width="610.000000pt" height="610.000000pt" viewBox="0 0 610.000000 610.000000"
 preserveAspectRatio="xMidYMid meet">
<metadata>
Created by potrace 1.11, written by Peter Selinger 2001-2013
</metadata>
<g transform="translate(0.000000,610.000000) scale(0.100000,-0.100000)"
fill="#000000" stroke="none">
<path d="M2905 5488 c-27 -5 -117 -23 -200 -40 -193 -38 -173 -33 -300 -63
-134 -32 -162 -39 -199 -54 -31 -13 -32 -10 26 -82 49 -62 111 -206 133 -309
2 -8 10 -44 19 -80 8 -36 18 -83 21 -105 3 -22 10 -65 15 -95 15 -89 24 -171
37 -315 8 -100 11 -1030 3 -1039 -3 -3 -62 13 -130 35 -152 49 -294 84 -440
109 -151 27 -427 32 -540 11 -60 -12 -174 -46 -245 -74 -74 -29 -256 -127
-310 -167 -265 -193 -401 -408 -453 -713 -14 -82 -7 -318 12 -407 17 -83 74
-268 94 -306 6 -11 25 -48 42 -84 54 -109 174 -280 260 -373 216 -230 473
-383 783 -464 95 -25 117 -27 322 -27 121 -1 236 2 255 6 51 9 197 46 254 63
27 8 51 13 54 10 2 -2 5 -40 5 -85 l0 -80 213 0 214 0 1 48 c0 26 2 72 4 102
6 84 6 392 1 420 -3 14 -7 42 -10 63 -15 95 -94 247 -152 290 -23 17 -27 17
-49 3 -13 -9 -50 -40 -82 -70 -265 -247 -485 -343 -758 -332 -321 14 -596 202
-740 509 -47 98 -66 175 -70 282 -8 205 41 330 185 476 242 244 492 312 721
194 143 -74 319 -240 485 -457 27 -35 53 -68 59 -74 5 -6 48 -62 95 -124 371
-490 547 -692 750 -862 205 -172 377 -266 605 -333 109 -32 176 -39 365 -38
213 0 291 9 465 53 273 69 491 194 688 395 280 285 409 669 336 1002 -28 126
-44 174 -105 298 -177 363 -531 636 -980 755 -105 28 -179 35 -364 35 -188 0
-247 -7 -370 -41 -52 -14 -106 -29 -119 -32 l-23 -5 6 254 c4 140 8 281 11
313 10 169 17 254 21 281 2 17 6 50 8 75 9 81 17 133 38 240 46 238 106 363
188 392 17 5 30 14 30 19 0 17 -130 64 -230 83 -14 3 -34 7 -45 10 -11 3 -74
16 -140 31 -66 14 -127 27 -135 30 -8 2 -31 6 -50 9 -19 3 -70 12 -114 20 -43
9 -82 14 -86 11 -4 -2 5 -55 21 -117 16 -62 31 -135 35 -163 3 -27 8 -53 10
-56 6 -10 25 -153 40 -289 3 -36 8 -78 9 -95 29 -273 24 -884 -10 -1257 -3
-32 -8 -86 -11 -120 -3 -35 -7 -74 -9 -88 -2 -14 -7 -57 -10 -97 -4 -40 -8
-83 -9 -97 -2 -15 -1 -26 1 -26 7 0 68 33 73 39 28 36 279 167 391 205 130 44
338 54 440 22 66 -20 153 -58 157 -68 2 -5 9 -8 16 -8 15 0 128 -90 175 -139
51 -53 105 -129 144 -201 34 -61 83 -194 94 -250 18 -97 22 -138 19 -235 -5
-181 -58 -311 -167 -409 -107 -96 -209 -124 -449 -121 -152 2 -170 4 -232 28
-190 75 -396 249 -579 492 -37 49 -77 101 -88 115 -10 14 -28 41 -39 60 -106
186 -268 432 -323 491 -8 8 -34 38 -58 68 l-44 53 8 166 c9 234 13 308 20 457
3 72 8 175 10 230 9 178 15 318 20 410 3 50 7 146 10 215 3 69 7 168 10 220 2
52 7 158 10 235 3 77 8 178 10 225 4 81 16 391 19 475 1 36 -2 40 -24 42 -14
0 -47 -3 -75 -9z"/>
</g>
</svg>
